<?xml version="1.0" encoding="UTF-8" standalone="no"?>
<!DOCTYPE svg PUBLIC "-//W3C//DTD SVG 1.1//EN" "http://www.w3.org/Graphics/SVG/1.1/DTD/svg11.dtd">
<svg width="100%" height="100%" viewBox="0 0 405 136" version="1.1" xmlns="http://www.w3.org/2000/svg" xmlns:xlink="http://www.w3.org/1999/xlink" xml:space="preserve" xmlns:serif="http://www.serif.com/" style="fill-rule:evenodd;clip-rule:evenodd;stroke-linecap:round;stroke-linejoin:round;stroke-miterlimit:1.5;">
    <g transform="matrix(1,0,0,1,-5894,-3178)">
        <g transform="matrix(1,0,0,1,5410.82,2668.27)">
            <g id="Button_brown_normal" transform="matrix(0.880358,0,0,1,82.0162,0)">
                <g transform="matrix(-7.27791e-17,1.31107,-1.08206,-6.00666e-17,4100.83,-7376.16)">
                    <path d="M6046.69,2946.71L6096.69,2946.71L6116.67,2981.34L6116.67,3330.6L6096.69,3365.23L6036.69,3365.23L6016.71,3330.6L6016.71,2981.34L6046.69,2946.71Z" style="fill:rgb(136,142,149);"/>
                    <clipPath id="_clip1">
                        <path d="M6046.69,2946.71L6096.69,2946.71L6116.67,2981.34L6116.67,3330.6L6096.69,3365.23L6036.69,3365.23L6016.71,3330.6L6016.71,2981.34L6046.69,2946.71Z"/>
                    </clipPath>
                    <g clip-path="url(#_clip1)">
                        <g transform="matrix(-4.23403e-17,-0.92416,0.762735,-5.13012e-17,3591.64,8791.21)">
                            <path d="M5870.26,3214.44L5870.26,3208.64L5907.73,3180.44L6285.65,3180.44L6323.13,3219.75L6323.13,3285.3L6317.13,3289.5L6317.13,3225.75L6279.65,3186.44L5909.73,3188.44L5870.26,3214.44Z" style="fill:rgb(207,211,216);"/>
                        </g>
                        <g transform="matrix(1.35748e-16,0.92416,-0.762735,1.64478e-16,8540.81,-2477.42)">
                            <path d="M5876.26,3205.44L5876.26,3202.64L5907.73,3179.44L6285.65,3180.44L6320.13,3204.75L6320.13,3276.3L6314.13,3280.5L6314.13,3212.75L6279.65,3186.44L5902.73,3187.44L5876.26,3205.44Z" style="fill-opacity:0.5;"/>
                        </g>
                    </g>
                    <path d="M6046.69,2946.71L6096.69,2946.71L6116.67,2981.34L6116.67,3330.6L6096.69,3365.23L6036.69,3365.23L6016.71,3330.6L6016.71,2981.34L6046.69,2946.71Z" style="fill:none;stroke:black;stroke-width:4.16px;"/>
                </g>
                <g transform="matrix(-5.55112e-17,1,-1,-5.55112e-17,3841.84,-5488.99)">
                    <path d="M6046.69,2946.71L6096.69,2946.71L6116.67,2981.34L6116.67,3330.6L6096.69,3365.23L6036.69,3365.23L6016.71,3330.6L6016.71,2981.34L6046.69,2946.71Z" style="fill:rgb(78,38,21);"/>
                    <clipPath id="_clip2">
                        <path d="M6046.69,2946.71L6096.69,2946.71L6116.67,2981.34L6116.67,3330.6L6096.69,3365.23L6036.69,3365.23L6016.71,3330.6L6016.71,2981.34L6046.69,2946.71Z"/>
                    </clipPath>
                    <g clip-path="url(#_clip2)">
                        <g transform="matrix(-5.55112e-17,-1,1,-5.55112e-17,2819.72,9251.66)">
                            <path d="M5902.43,3207.32L5902.43,3260.97L5937.06,3280.95L6286.32,3280.95L6305.95,3269.63L6305.95,3275.97L6271.32,3295.95L5922.06,3295.95L5887.43,3275.97L5887.43,3215.97L5902.43,3207.32Z" style="fill:rgb(46,27,19);"/>
                        </g>
                        <g transform="matrix(-5.55112e-17,-1,1,-5.55112e-17,2821.72,9253.66)">
                            <path d="M5887.43,3222.32L5887.43,3215.97L5922.06,3195.99L6271.32,3195.99L6305.95,3225.97L6305.95,3275.97L6290.95,3284.63L6290.95,3240.97L6256.32,3210.99L5907.06,3210.99L5887.43,3222.32Z" style="fill:rgb(131,80,58);"/>
                        </g>
                        <g transform="matrix(0.61865,-0.61865,1.3374,1.3374,-2058.87,2604.84)">
                            <path d="M6346.42,3206.32L6236.71,3329.17L6212.6,3319.06L6349.14,3189.13L6267.84,3163.84L6188.86,3272.38L6162.02,3343.18L6123.9,3338.51L6167.47,3245.97L6164.36,3279.95L6179.14,3233.48L6205.59,3153.73L6096.69,3162.68L6030.54,3364.18L6058.93,3363.02L6110.67,3221.03L6081.89,3285.63L6101.73,3216.75L6119.23,3206.32L6135.57,3133.11L6023.14,3164.62L6007.19,3309.72L5972.18,3355.24L5958.96,3328.01L5978.8,3264.21L5994.36,3261.1L5979.57,3257.21L5985.41,3211.99L6001.36,3237.37L5986.58,3196.99L5988.91,3140.5L5954.29,3172.79L5909.55,3334.23L5880.38,3319.45L5903.43,3259.97L5912.66,3272.38L5910.33,3234.25L5934.06,3151.78L5853.14,3227.64L5860.15,3170.84L6358.48,3177.07L6346.42,3206.32Z" style="fill:rgb(167,119,60);fill-opacity:0.1;"/>
                        </g>
                        <g transform="matrix(-0.61865,0.61865,-1.3374,-1.3374,14201.6,3733.71)">
                            <path d="M6346.42,3206.32L6236.71,3329.17L6212.6,3319.06L6349.14,3189.13L6267.84,3163.84L6188.86,3272.38L6162.02,3343.18L6123.9,3338.51L6167.47,3245.97L6164.36,3279.95L6179.14,3233.48L6205.59,3153.73L6096.69,3162.68L6030.54,3364.18L6058.93,3363.02L6110.67,3221.03L6081.89,3285.63L6101.73,3216.75L6119.23,3206.32L6135.57,3133.11L6023.14,3164.62L6007.19,3309.72L5972.18,3355.24L5958.96,3328.01L5978.8,3264.21L5994.36,3261.1L5979.57,3257.21L5985.41,3211.99L6001.36,3237.37L5986.58,3196.99L5988.91,3140.5L5954.29,3172.79L5909.55,3334.23L5880.38,3319.45L5903.43,3259.97L5912.66,3272.38L5910.33,3234.25L5934.06,3151.78L5853.14,3227.64L5860.15,3170.84L6358.48,3177.07L6346.42,3206.32Z" style="fill:rgb(167,119,60);fill-opacity:0.1;"/>
                        </g>
                        <g transform="matrix(0.647936,-0.647936,1.3374,1.3374,-2215.83,2748.56)">
                            <path d="M6346.42,3206.32L6236.71,3329.17L6212.6,3319.06L6349.14,3189.13L6267.84,3163.84L6188.86,3272.38L6162.02,3343.18L6123.9,3338.51L6167.47,3245.97L6164.36,3279.95L6179.14,3233.48L6205.59,3153.73L6096.69,3162.68L6030.54,3364.18L6058.93,3363.02L6110.67,3221.03L6081.89,3285.63L6101.73,3216.75L6119.23,3206.32L6135.57,3133.11L6023.14,3164.62L6007.19,3309.72L5972.18,3355.24L5958.96,3328.01L5978.8,3264.21L5994.36,3261.1L5979.57,3257.21L5985.41,3211.99L6001.36,3237.37L5986.58,3196.99L5988.91,3140.5L5954.29,3172.79L5909.55,3334.23L5880.38,3319.45L5903.43,3259.97L5912.66,3272.38L5910.33,3234.25L5934.06,3151.78L5853.14,3227.64L5860.15,3170.84L6358.48,3177.07L6346.42,3206.32Z" style="fill:rgb(36,36,36);fill-opacity:0.1;"/>
                        </g>
                        <g transform="matrix(-0.647936,0.647936,-1.3374,-1.3374,14359.5,3565.38)">
                            <path d="M6346.42,3206.32L6236.71,3329.17L6212.6,3319.06L6349.14,3189.13L6267.84,3163.84L6188.86,3272.38L6162.02,3343.18L6123.9,3338.51L6167.47,3245.97L6164.36,3279.95L6179.14,3233.48L6205.59,3153.73L6096.69,3162.68L6030.54,3364.18L6058.93,3363.02L6110.67,3221.03L6081.89,3285.63L6101.73,3216.75L6119.23,3206.32L6135.57,3133.11L6023.14,3164.62L6007.19,3309.72L5972.18,3355.24L5958.96,3328.01L5978.8,3264.21L5994.36,3261.1L5979.57,3257.21L5985.41,3211.99L6001.36,3237.37L5986.58,3196.99L5988.91,3140.5L5954.29,3172.79L5909.55,3334.23L5880.38,3319.45L5903.43,3259.97L5912.66,3272.38L5910.33,3234.25L5934.06,3151.78L5853.14,3227.64L5860.15,3170.84L6358.48,3177.07L6346.42,3206.32Z" style="fill:rgb(36,36,36);fill-opacity:0.1;"/>
                        </g>
                    </g>
                    <path d="M6046.69,2946.71L6096.69,2946.71L6116.67,2981.34L6116.67,3330.6L6096.69,3365.23L6036.69,3365.23L6016.71,3330.6L6016.71,2981.34L6046.69,2946.71Z" style="fill:none;stroke:black;stroke-width:5px;"/>
                </g>
            </g>
        </g>
    </g>
</svg>
