<svg xmlns="http://www.w3.org/2000/svg" xmlns:xlink="http://www.w3.org/1999/xlink" xmlns:lucid="lucid" width="1760" height="1360"><g transform="translate(0 0)" lucid:page-tab-id="0_0"><path d="M403.4 74c0-6.63 5.4-12 12-12h936.2c6.6 0 12 5.37 12 12v39.08c0 6.62-5.4 12-12 12H415.4c-6.6 0-12-5.38-12-12z" stroke="#000" stroke-opacity="0" stroke-width="2" fill="#fff" fill-opacity="0"/><use xlink:href="#a" transform="matrix(1,0,0,1,408.41289017655055,66.99999999999994) translate(410.4259259259259 31.458333333333336)"/><path d="M658.54 129.87c0-6.63 5.38-12 12-12h430c6.63 0 12 5.37 12 12V140c0 6.63-5.37 12-12 12h-430c-6.62 0-12-5.37-12-12z" stroke="#000" stroke-opacity="0" stroke-width="2" fill="#fff" fill-opacity="0"/><use xlink:href="#b" transform="matrix(1,0,0,1,663.5444743839482,122.86936285872466) translate(127.24382716049382 15.569444444444446)"/><use xlink:href="#c" transform="matrix(1,0,0,1,663.5444743839482,122.86936285872466) translate(177.32407407407408 15.569444444444446)"/><use xlink:href="#d" transform="matrix(1,0,0,1,663.5444743839482,122.86936285872466) translate(189.98456790123458 15.569444444444446)"/><use xlink:href="#e" transform="matrix(1,0,0,1,663.5444743839482,122.86936285872466) translate(265.90432098765433 15.569444444444446)"/><use xlink:href="#f" transform="matrix(1,0,0,1,663.5444743839482,122.86936285872466) translate(283.1882716049383 15.569444444444446)"/><path d="M581.05 117.6h610.2M581.08 117.6h-1.03M1191.24 117.6h1.02" stroke="#b2b2b2" stroke-width="2" fill="none"/><path d="M336.9 456.14c0-2.76 2.23-5 5-5h208.67c2.77 0 5 2.24 5 5v222c0 2.76-2.23 5-5 5H341.9c-2.77 0-5-2.24-5-5z" fill="#fff"/><path d="M336.9 456.14c0-2.76 2.23-5 5-5h208.67c2.77 0 5 2.24 5 5v222c0 2.76-2.23 5-5 5H341.9c-2.77 0-5-2.24-5-5zM336.9 491.14h218.67" stroke="#000" fill="none"/><use xlink:href="#g" transform="matrix(1,0,0,1,346.89033904558664,451.13909774438196) translate(0 23.6)"/><use xlink:href="#h" transform="matrix(1,0,0,1,341.89033904558664,493.63909774438196) translate(0 17.1)"/><use xlink:href="#i" transform="matrix(1,0,0,1,341.89033904558664,525.639097744382) translate(0 17.1)"/><use xlink:href="#j" transform="matrix(1,0,0,1,341.89033904558664,557.639097744382) translate(0 17.1)"/><use xlink:href="#k" transform="matrix(1,0,0,1,341.89033904558664,589.639097744382) translate(0 17.1)"/><use xlink:href="#l" transform="matrix(1,0,0,1,341.89033904558664,621.639097744382) translate(0 17.1)"/><use xlink:href="#m" transform="matrix(1,0,0,1,341.89033904558664,653.639097744382) translate(0 17.1)"/><path d="M1131.82 456.14c0-2.76 2.24-5 5-5h190c2.76 0 5 2.24 5 5v126c0 2.76-2.24 5-5 5h-190c-2.76 0-5-2.24-5-5z" fill="#fff"/><path d="M1131.82 456.14c0-2.76 2.24-5 5-5h190c2.76 0 5 2.24 5 5v126c0 2.76-2.24 5-5 5h-190c-2.76 0-5-2.24-5-5zM1131.82 491.14h200" stroke="#000" fill="none"/><use xlink:href="#n" transform="matrix(1,0,0,1,1141.8233082706313,451.13909774438196) translate(0 23.6)"/><use xlink:href="#h" transform="matrix(1,0,0,1,1136.8233082706313,493.63909774438196) translate(0 17.1)"/><use xlink:href="#o" transform="matrix(1,0,0,1,1136.8233082706313,525.639097744382) translate(0 17.1)"/><path d="M734.12 456.14c0-2.76 2.24-5 5-5h190c2.76 0 5 2.24 5 5v126c0 2.76-2.24 5-5 5h-190c-2.76 0-5-2.24-5-5z" fill="#fff"/><path d="M734.12 456.14c0-2.76 2.24-5 5-5h190c2.76 0 5 2.24 5 5v126c0 2.76-2.24 5-5 5h-190c-2.76 0-5-2.24-5-5zM734.12 491.14h200" stroke="#000" fill="none"/><use xlink:href="#p" transform="matrix(1,0,0,1,744.1165413534123,451.13909774438196) translate(0 23.6)"/><use xlink:href="#q" transform="matrix(1,0,0,1,739.1165413534123,493.63909774438196) translate(0 17.1)"/><use xlink:href="#r" transform="matrix(1,0,0,1,739.1165413534123,525.639097744382) translate(0 17.1)"/><path d="M954.62 507.08h78.32c.02 0 .03 0 .03.03s0 .04.03.04h78.9" stroke="#000" fill="none"/><path d="M954.62 517.08v-20M934.62 507.08h20M1131.1 517.14l-20-10 20-10M1131.1 507.14h-20" stroke="#000" fill="#fff"/><path d="M713.62 507.08h-68.74c-.02 0-.03 0-.03.03s-.02.04-.03.04H575.5" stroke="#000" fill="none"/><path d="M713.62 497.08v20M733.62 507.08h-20M556.3 497.14l20 10-20 10M556.3 507.14h20" stroke="#000" fill="#fff"/><path d="M771.48 829.83c0-2.76 2.24-5 5-5h496.55c2.76 0 5 2.24 5 5v158c0 2.76-2.24 5-5 5H776.48c-2.76 0-5-2.24-5-5z" fill="#fff"/><path d="M771.48 829.83c0-2.76 2.24-5 5-5h496.55c2.76 0 5 2.24 5 5v158c0 2.76-2.24 5-5 5H776.48c-2.76 0-5-2.24-5-5zM771.48 864.83h506.55" stroke="#000" fill="none"/><use xlink:href="#s" transform="matrix(1,0,0,1,781.4849624059765,824.8308270676841) translate(0 23.6)"/><use xlink:href="#o" transform="matrix(1,0,0,1,776.4849624059765,867.3308270676841) translate(0 17.1)"/><use xlink:href="#t" transform="matrix(1,0,0,1,776.4849624059765,899.3308270676841) translate(0 17.1)"/><use xlink:href="#h" transform="matrix(1,0,0,1,776.4849624059765,931.3308270676841) translate(0 17.1)"/><use xlink:href="#u" transform="matrix(1,0,0,1,776.4849624059765,963.3308270676841) translate(0 17.1)"/><path d="M576.07 667.14h75.46c6.63 0 12 5.37 12 12v253.7c0 6.62 5.37 12 12 12h76.04" stroke="#000" fill="none"/><path d="M576.07 677.14v-20M556.07 667.14h20M770.76 954.83l-20-10 20-10M770.76 944.83h-20" stroke="#000" fill="#fff"/><path d="M280.36 907.24c0-2.76 2.24-5 5-5h190c2.76 0 5 2.24 5 5v158c0 2.76-2.24 5-5 5h-190c-2.76 0-5-2.24-5-5z" fill="#fff"/><path d="M280.36 907.24c0-2.76 2.24-5 5-5h190c2.76 0 5 2.24 5 5v158c0 2.76-2.24 5-5 5h-190c-2.76 0-5-2.24-5-5zM280.36 942.24h200" stroke="#000" fill="none"/><use xlink:href="#v" transform="matrix(1,0,0,1,290.3571428571796,902.2368421052895) translate(0 23.6)"/><g><use xlink:href="#h" transform="matrix(1,0,0,1,285.3571428571796,944.7368421052895) translate(0 17.1)"/></g><g><use xlink:href="#w" transform="matrix(1,0,0,1,285.3571428571796,976.7368421052895) translate(0 17.1)"/></g><g><use xlink:href="#o" transform="matrix(1,0,0,1,285.3571428571796,1008.7368421052895) translate(0 17.1)"/></g><defs><path fill="#b2b2b2" d="M76-208v77h127v40H76V0H24v-248h183v40H76" id="x"/><path fill="#b2b2b2" d="M110-194c64 0 96 36 96 99 0 64-35 99-97 99-61 0-95-36-95-99 0-62 34-99 96-99zm-1 164c35 0 45-28 45-65 0-40-10-65-43-65-34 0-45 26-45 65 0 36 10 65 43 65" id="y"/><path fill="#b2b2b2" d="M135-150c-39-12-60 13-60 57V0H25l-1-190h47c2 13-1 29 3 40 6-28 27-53 61-41v41" id="z"/><path fill="#b2b2b2" d="M220-157c-53 9-28 100-34 157h-49v-107c1-27-5-49-29-50C55-147 81-57 75 0H25l-1-190h47c2 12-1 28 3 38 10-53 101-56 108 0 13-22 24-43 59-42 82 1 51 116 57 194h-49v-107c-1-25-5-48-29-50" id="A"/><path fill="#b2b2b2" d="M25-224v-37h50v37H25zM25 0v-190h50V0H25" id="B"/><path fill="#b2b2b2" d="M25 0v-261h50V0H25" id="C"/><path fill="#b2b2b2" d="M185-48c-13 30-37 53-82 52C43 2 14-33 14-96s30-98 90-98c62 0 83 45 84 108H66c0 31 8 55 39 56 18 0 30-7 34-22zm-45-69c5-46-57-63-70-21-2 6-4 13-4 21h74" id="D"/><g id="a"><use transform="matrix(0.07407407407407408,0,0,0.07407407407407408,0,0)" xlink:href="#x"/><use transform="matrix(0.07407407407407408,0,0,0.07407407407407408,16.222222222222225,0)" xlink:href="#y"/><use transform="matrix(0.07407407407407408,0,0,0.07407407407407408,32.44444444444445,0)" xlink:href="#z"/><use transform="matrix(0.07407407407407408,0,0,0.07407407407407408,42.814814814814824,0)" xlink:href="#A"/><use transform="matrix(0.07407407407407408,0,0,0.07407407407407408,66.51851851851853,0)" xlink:href="#x"/><use transform="matrix(0.07407407407407408,0,0,0.07407407407407408,82.74074074074076,0)" xlink:href="#B"/><use transform="matrix(0.07407407407407408,0,0,0.07407407407407408,90.14814814814817,0)" xlink:href="#C"/><use transform="matrix(0.07407407407407408,0,0,0.07407407407407408,97.55555555555557,0)" xlink:href="#C"/><use transform="matrix(0.07407407407407408,0,0,0.07407407407407408,104.96296296296298,0)" xlink:href="#D"/><use transform="matrix(0.07407407407407408,0,0,0.07407407407407408,119.7777777777778,0)" xlink:href="#z"/></g><path fill="#b2b2b2" d="M106-169C34-169 62-67 57 0H25v-261h32l-1 103c12-21 28-36 61-36 89 0 53 116 60 194h-32v-121c2-32-8-49-39-48" id="E"/><path fill="#b2b2b2" d="M100-194c63 0 86 42 84 106H49c0 40 14 67 53 68 26 1 43-12 49-29l28 8c-11 28-37 45-77 45C44 4 14-33 15-96c1-61 26-98 85-98zm52 81c6-60-76-77-97-28-3 7-6 17-6 28h103" id="F"/><path fill="#b2b2b2" d="M24-231v-30h32v30H24zM24 0v-190h32V0H24" id="G"/><path fill="#b2b2b2" d="M143 0L79-87 56-68V0H24v-261h32v163l83-92h37l-77 82L181 0h-38" id="H"/><path fill="#b2b2b2" d="M100-194c62-1 85 37 85 99 1 63-27 99-86 99S16-35 15-95c0-66 28-99 85-99zM99-20c44 1 53-31 53-75 0-43-8-75-51-75s-53 32-53 75 10 74 51 75" id="I"/><g id="b"><use transform="matrix(0.04320987654320988,0,0,0.04320987654320988,0,0)" xlink:href="#E"/><use transform="matrix(0.04320987654320988,0,0,0.04320987654320988,8.641975308641976,0)" xlink:href="#F"/><use transform="matrix(0.04320987654320988,0,0,0.04320987654320988,17.283950617283953,0)" xlink:href="#G"/><use transform="matrix(0.04320987654320988,0,0,0.04320987654320988,20.69753086419753,0)" xlink:href="#H"/><use transform="matrix(0.04320987654320988,0,0,0.04320987654320988,28.47530864197531,0)" xlink:href="#I"/></g><path fill="#b2b2b2" d="M32 76v-337h29V76H32" id="J"/><use transform="matrix(0.04320987654320988,0,0,0.04320987654320988,0,0)" xlink:href="#J" id="c"/><path fill="#b2b2b2" d="M30-248c118-7 216 8 213 122C240-48 200 0 122 0H30v-248zM63-27c89 8 146-16 146-99s-60-101-146-95v194" id="K"/><path fill="#b2b2b2" d="M96-169c-40 0-48 33-48 73s9 75 48 75c24 0 41-14 43-38l32 2c-6 37-31 61-74 61-59 0-76-41-82-99-10-93 101-131 147-64 4 7 5 14 7 22l-32 3c-4-21-16-35-41-35" id="L"/><path fill="#b2b2b2" d="M210-169c-67 3-38 105-44 169h-31v-121c0-29-5-50-35-48C34-165 62-65 56 0H25l-1-190h30c1 10-1 24 2 32 10-44 99-50 107 0 11-21 27-35 58-36 85-2 47 119 55 194h-31v-121c0-29-5-49-35-48" id="M"/><path fill="#b2b2b2" d="M115-194c53 0 69 39 70 98 0 66-23 100-70 100C84 3 66-7 56-30L54 0H23l1-261h32v101c10-23 28-34 59-34zm-8 174c40 0 45-34 45-75 0-40-5-75-45-74-42 0-51 32-51 76 0 43 10 73 51 73" id="N"/><path fill="#b2b2b2" d="M114-163C36-179 61-72 57 0H25l-1-190h30c1 12-1 29 2 39 6-27 23-49 58-41v29" id="O"/><g id="d"><use transform="matrix(0.04320987654320988,0,0,0.04320987654320988,0,0)" xlink:href="#K"/><use transform="matrix(0.04320987654320988,0,0,0.04320987654320988,11.19135802469136,0)" xlink:href="#F"/><use transform="matrix(0.04320987654320988,0,0,0.04320987654320988,19.833333333333336,0)" xlink:href="#L"/><use transform="matrix(0.04320987654320988,0,0,0.04320987654320988,27.611111111111114,0)" xlink:href="#F"/><use transform="matrix(0.04320987654320988,0,0,0.04320987654320988,36.25308641975309,0)" xlink:href="#M"/><use transform="matrix(0.04320987654320988,0,0,0.04320987654320988,49.17283950617284,0)" xlink:href="#N"/><use transform="matrix(0.04320987654320988,0,0,0.04320987654320988,57.814814814814824,0)" xlink:href="#F"/><use transform="matrix(0.04320987654320988,0,0,0.04320987654320988,66.4567901234568,0)" xlink:href="#O"/></g><path fill="#b2b2b2" d="M99-251c64 0 84 50 84 122C183-37 130 33 47-8c-14-7-20-23-25-40l30-5c6 39 69 39 84 7 9-19 16-44 16-74-10 22-31 35-62 35-49 0-73-33-73-83 0-54 28-83 82-83zm-1 141c31-1 51-18 51-49 0-36-14-67-51-67-34 0-49 23-49 58 0 34 15 58 49 58" id="P"/><path fill="#b2b2b2" d="M68-38c1 34 0 65-14 84H32c9-13 17-26 17-46H33v-38h35" id="Q"/><g id="e"><use transform="matrix(0.04320987654320988,0,0,0.04320987654320988,0,0)" xlink:href="#P"/><use transform="matrix(0.04320987654320988,0,0,0.04320987654320988,8.641975308641976,0)" xlink:href="#Q"/></g><path fill="#b2b2b2" d="M101-251c82-7 93 87 43 132L82-64C71-53 59-42 53-27h129V0H18c2-99 128-94 128-182 0-28-16-43-45-43s-46 15-49 41l-32-3c6-41 34-60 81-64" id="R"/><path fill="#b2b2b2" d="M101-251c68 0 85 55 85 127S166 4 100 4C33 4 14-52 14-124c0-73 17-127 87-127zm-1 229c47 0 54-49 54-102s-4-102-53-102c-51 0-55 48-55 102 0 53 5 102 54 102" id="S"/><path fill="#b2b2b2" d="M27 0v-27h64v-190l-56 39v-29l58-41h29v221h61V0H27" id="T"/><g id="f"><use transform="matrix(0.04320987654320988,0,0,0.04320987654320988,0,0)" xlink:href="#R"/><use transform="matrix(0.04320987654320988,0,0,0.04320987654320988,8.641975308641976,0)" xlink:href="#S"/><use transform="matrix(0.04320987654320988,0,0,0.04320987654320988,17.283950617283953,0)" xlink:href="#T"/><use transform="matrix(0.04320987654320988,0,0,0.04320987654320988,25.925925925925927,0)" xlink:href="#P"/></g><path d="M30-248c87 1 191-15 191 75 0 78-77 80-158 76V0H30v-248zm33 125c57 0 124 11 124-50 0-59-68-47-124-48v98" id="U"/><path d="M114-163C36-179 61-72 57 0H25l-1-190h30c1 12-1 29 2 39 6-27 23-49 58-41v29" id="V"/><path d="M100-194c62-1 85 37 85 99 1 63-27 99-86 99S16-35 15-95c0-66 28-99 85-99zM99-20c44 1 53-31 53-75 0-43-8-75-51-75s-53 32-53 75 10 74 51 75" id="W"/><path d="M24-231v-30h32v30H24zM-9 49c24 4 33-6 33-30v-209h32V24c2 40-23 58-65 49V49" id="X"/><path d="M100-194c63 0 86 42 84 106H49c0 40 14 67 53 68 26 1 43-12 49-29l28 8c-11 28-37 45-77 45C44 4 14-33 15-96c1-61 26-98 85-98zm52 81c6-60-76-77-97-28-3 7-6 17-6 28h103" id="Y"/><path d="M96-169c-40 0-48 33-48 73s9 75 48 75c24 0 41-14 43-38l32 2c-6 37-31 61-74 61-59 0-76-41-82-99-10-93 101-131 147-64 4 7 5 14 7 22l-32 3c-4-21-16-35-41-35" id="Z"/><path d="M59-47c-2 24 18 29 38 22v24C64 9 27 4 27-40v-127H5v-23h24l9-43h21v43h35v23H59v120" id="aa"/><g id="g"><use transform="matrix(0.05,0,0,0.05,0,0)" xlink:href="#U"/><use transform="matrix(0.05,0,0,0.05,12,0)" xlink:href="#V"/><use transform="matrix(0.05,0,0,0.05,17.95,0)" xlink:href="#W"/><use transform="matrix(0.05,0,0,0.05,27.950000000000003,0)" xlink:href="#X"/><use transform="matrix(0.05,0,0,0.05,31.899999999999995,0)" xlink:href="#Y"/><use transform="matrix(0.05,0,0,0.05,41.9,0)" xlink:href="#Z"/><use transform="matrix(0.05,0,0,0.05,50.9,0)" xlink:href="#aa"/></g><path d="M33 0v-248h34V0H33" id="ab"/><path d="M30-248c118-7 216 8 213 122C240-48 200 0 122 0H30v-248zM63-27c89 8 146-16 146-99s-60-101-146-95v194" id="ac"/><g id="h"><use transform="matrix(0.05,0,0,0.05,0,0)" xlink:href="#ab"/><use transform="matrix(0.05,0,0,0.05,5,0)" xlink:href="#ac"/></g><path d="M212-179c-10-28-35-45-73-45-59 0-87 40-87 99 0 60 29 101 89 101 43 0 62-24 78-52l27 14C228-24 195 4 139 4 59 4 22-46 18-125c-6-104 99-153 187-111 19 9 31 26 39 46" id="ad"/><path d="M117-194c89-4 53 116 60 194h-32v-121c0-31-8-49-39-48C34-167 62-67 57 0H25l-1-190h30c1 10-1 24 2 32 11-22 29-35 61-36" id="ae"/><path d="M141-36C126-15 110 5 73 4 37 3 15-17 15-53c-1-64 63-63 125-63 3-35-9-54-41-54-24 1-41 7-42 31l-33-3c5-37 33-52 76-52 45 0 72 20 72 64v82c-1 20 7 32 28 27v20c-31 9-61-2-59-35zM48-53c0 20 12 33 32 33 41-3 63-29 60-74-43 2-92-5-92 41" id="af"/><path d="M233-177c-1 41-23 64-60 70L243 0h-38l-65-103H63V0H30v-248c88 3 205-21 203 71zM63-129c60-2 137 13 137-47 0-61-80-42-137-45v92" id="ag"/><path d="M108 0H70L1-190h34L89-25l56-165h34" id="ah"/><path d="M24-231v-30h32v30H24zM24 0v-190h32V0H24" id="ai"/><path d="M206 0h-36l-40-164L89 0H53L-1-190h32L70-26l43-164h34l41 164 42-164h31" id="aj"/><g id="i"><use transform="matrix(0.05,0,0,0.05,0,0)" xlink:href="#ad"/><use transform="matrix(0.05,0,0,0.05,12.950000000000001,0)" xlink:href="#W"/><use transform="matrix(0.05,0,0,0.05,22.950000000000003,0)" xlink:href="#ae"/><use transform="matrix(0.05,0,0,0.05,32.95,0)" xlink:href="#aa"/><use transform="matrix(0.05,0,0,0.05,37.95,0)" xlink:href="#af"/><use transform="matrix(0.05,0,0,0.05,47.95,0)" xlink:href="#Z"/><use transform="matrix(0.05,0,0,0.05,56.95,0)" xlink:href="#aa"/><use transform="matrix(0.05,0,0,0.05,61.95,0)" xlink:href="#ag"/><use transform="matrix(0.05,0,0,0.05,74.9,0)" xlink:href="#Y"/><use transform="matrix(0.05,0,0,0.05,84.9,0)" xlink:href="#ah"/><use transform="matrix(0.05,0,0,0.05,93.9,0)" xlink:href="#ai"/><use transform="matrix(0.05,0,0,0.05,97.85000000000001,0)" xlink:href="#Y"/><use transform="matrix(0.05,0,0,0.05,107.85000000000001,0)" xlink:href="#aj"/></g><path d="M135-143c-3-34-86-38-87 0 15 53 115 12 119 90S17 21 10-45l28-5c4 36 97 45 98 0-10-56-113-15-118-90-4-57 82-63 122-42 12 7 21 19 24 35" id="ak"/><path d="M115-194c55 1 70 41 70 98S169 2 115 4C84 4 66-9 55-30l1 105H24l-1-265h31l2 30c10-21 28-34 59-34zm-8 174c40 0 45-34 45-75s-6-73-45-74c-42 0-51 32-51 76 0 43 10 73 51 73" id="al"/><g id="j"><use transform="matrix(0.05,0,0,0.05,0,0)" xlink:href="#ac"/><use transform="matrix(0.05,0,0,0.05,12.950000000000001,0)" xlink:href="#Y"/><use transform="matrix(0.05,0,0,0.05,22.950000000000003,0)" xlink:href="#ak"/><use transform="matrix(0.05,0,0,0.05,31.950000000000003,0)" xlink:href="#Z"/><use transform="matrix(0.05,0,0,0.05,40.95,0)" xlink:href="#V"/><use transform="matrix(0.05,0,0,0.05,46.900000000000006,0)" xlink:href="#ai"/><use transform="matrix(0.05,0,0,0.05,50.85000000000001,0)" xlink:href="#al"/><use transform="matrix(0.05,0,0,0.05,60.85,0)" xlink:href="#aa"/><use transform="matrix(0.05,0,0,0.05,65.85000000000001,0)" xlink:href="#ai"/><use transform="matrix(0.05,0,0,0.05,69.80000000000001,0)" xlink:href="#W"/><use transform="matrix(0.05,0,0,0.05,79.80000000000001,0)" xlink:href="#ae"/></g><path d="M30 0v-248h33v221h125V0H30" id="am"/><path d="M143 0L79-87 56-68V0H24v-261h32v163l83-92h37l-77 82L181 0h-38" id="an"/><path d="M85-194c31 0 48 13 60 33l-1-100h32l1 261h-30c-2-10 0-23-3-31C134-8 116 4 85 4 32 4 16-35 15-94c0-66 23-100 70-100zm9 24c-40 0-46 34-46 75 0 40 6 74 45 74 42 0 51-32 51-76 0-42-9-74-50-73" id="ao"/><g id="k"><use transform="matrix(0.05,0,0,0.05,0,0)" xlink:href="#am"/><use transform="matrix(0.05,0,0,0.05,10,0)" xlink:href="#W"/><use transform="matrix(0.05,0,0,0.05,20,0)" xlink:href="#Z"/><use transform="matrix(0.05,0,0,0.05,29,0)" xlink:href="#an"/><use transform="matrix(0.05,0,0,0.05,38,0)" xlink:href="#Y"/><use transform="matrix(0.05,0,0,0.05,48,0)" xlink:href="#ao"/></g><path d="M143 4C61 4 22-44 18-125c-5-107 100-154 193-111 17 8 29 25 37 43l-32 9c-13-25-37-40-76-40-61 0-88 39-88 99 0 61 29 100 91 101 35 0 62-11 79-27v-45h-74v-28h105v86C228-13 192 4 143 4" id="ap"/><path d="M24 0v-261h32V0H24" id="aq"/><path d="M115-194c53 0 69 39 70 98 0 66-23 100-70 100C84 3 66-7 56-30L54 0H23l1-261h32v101c10-23 28-34 59-34zm-8 174c40 0 45-34 45-75 0-40-5-75-45-74-42 0-51 32-51 76 0 43 10 73 51 73" id="ar"/><g id="l"><use transform="matrix(0.05,0,0,0.05,0,0)" xlink:href="#ap"/><use transform="matrix(0.05,0,0,0.05,14,0)" xlink:href="#aq"/><use transform="matrix(0.05,0,0,0.05,17.95,0)" xlink:href="#W"/><use transform="matrix(0.05,0,0,0.05,27.950000000000003,0)" xlink:href="#ar"/><use transform="matrix(0.05,0,0,0.05,37.95,0)" xlink:href="#af"/><use transform="matrix(0.05,0,0,0.05,47.95,0)" xlink:href="#aq"/><use transform="matrix(0.05,0,0,0.05,51.900000000000006,0)" xlink:href="#ag"/><use transform="matrix(0.05,0,0,0.05,64.85000000000001,0)" xlink:href="#Y"/><use transform="matrix(0.05,0,0,0.05,74.85000000000001,0)" xlink:href="#ah"/><use transform="matrix(0.05,0,0,0.05,83.85000000000001,0)" xlink:href="#ai"/><use transform="matrix(0.05,0,0,0.05,87.80000000000001,0)" xlink:href="#Y"/><use transform="matrix(0.05,0,0,0.05,97.80000000000001,0)" xlink:href="#aj"/></g><path d="M-5 72V49h209v23H-5" id="as"/><g id="m"><use transform="matrix(0.05,0,0,0.05,0,0)" xlink:href="#U"/><use transform="matrix(0.05,0,0,0.05,12,0)" xlink:href="#af"/><use transform="matrix(0.05,0,0,0.05,22,0)" xlink:href="#V"/><use transform="matrix(0.05,0,0,0.05,27.950000000000003,0)" xlink:href="#aa"/><use transform="matrix(0.05,0,0,0.05,32.95,0)" xlink:href="#ae"/><use transform="matrix(0.05,0,0,0.05,42.95,0)" xlink:href="#Y"/><use transform="matrix(0.05,0,0,0.05,52.95,0)" xlink:href="#V"/><use transform="matrix(0.05,0,0,0.05,58.900000000000006,0)" xlink:href="#as"/><use transform="matrix(0.05,0,0,0.05,68.9,0)" xlink:href="#ab"/><use transform="matrix(0.05,0,0,0.05,73.9,0)" xlink:href="#ac"/></g><path d="M30 0v-248h187v28H63v79h144v27H63v87h162V0H30" id="at"/><path d="M210-169c-67 3-38 105-44 169h-31v-121c0-29-5-50-35-48C34-165 62-65 56 0H25l-1-190h30c1 10-1 24 2 32 10-44 99-50 107 0 11-21 27-35 58-36 85-2 47 119 55 194h-31v-121c0-29-5-49-35-48" id="au"/><path d="M179-190L93 31C79 59 56 82 12 73V49c39 6 53-20 64-50L1-190h34L92-34l54-156h33" id="av"/><g id="n"><use transform="matrix(0.05,0,0,0.05,0,0)" xlink:href="#at"/><use transform="matrix(0.05,0,0,0.05,12,0)" xlink:href="#au"/><use transform="matrix(0.05,0,0,0.05,26.950000000000003,0)" xlink:href="#al"/><use transform="matrix(0.05,0,0,0.05,36.95,0)" xlink:href="#aq"/><use transform="matrix(0.05,0,0,0.05,40.900000000000006,0)" xlink:href="#W"/><use transform="matrix(0.05,0,0,0.05,50.900000000000006,0)" xlink:href="#av"/><use transform="matrix(0.05,0,0,0.05,59.900000000000006,0)" xlink:href="#Y"/><use transform="matrix(0.05,0,0,0.05,69.9,0)" xlink:href="#Y"/></g><path d="M190 0L58-211 59 0H30v-248h39L202-35l-2-213h31V0h-41" id="aw"/><g id="o"><use transform="matrix(0.05,0,0,0.05,0,0)" xlink:href="#aw"/><use transform="matrix(0.05,0,0,0.05,12.950000000000001,0)" xlink:href="#af"/><use transform="matrix(0.05,0,0,0.05,22.950000000000003,0)" xlink:href="#au"/><use transform="matrix(0.05,0,0,0.05,37.900000000000006,0)" xlink:href="#Y"/></g><path d="M127-220V0H93v-220H8v-28h204v28h-85" id="ax"/><path d="M205 0l-28-72H64L36 0H1l101-248h38L239 0h-34zm-38-99l-47-123c-12 45-31 82-46 123h93" id="ay"/><path d="M240 0l2-218c-23 76-54 145-80 218h-23L58-218 59 0H30v-248h44l77 211c21-75 51-140 76-211h43V0h-30" id="az"/><g id="p"><use transform="matrix(0.05,0,0,0.05,0,0)" xlink:href="#U"/><use transform="matrix(0.05,0,0,0.05,12,0)" xlink:href="#V"/><use transform="matrix(0.05,0,0,0.05,17.95,0)" xlink:href="#W"/><use transform="matrix(0.05,0,0,0.05,27.950000000000003,0)" xlink:href="#X"/><use transform="matrix(0.05,0,0,0.05,31.899999999999995,0)" xlink:href="#Y"/><use transform="matrix(0.05,0,0,0.05,41.9,0)" xlink:href="#Z"/><use transform="matrix(0.05,0,0,0.05,50.9,0)" xlink:href="#aa"/><use transform="matrix(0.05,0,0,0.05,55.900000000000006,0)" xlink:href="#as"/><use transform="matrix(0.05,0,0,0.05,65.9,0)" xlink:href="#ax"/><use transform="matrix(0.05,0,0,0.05,76.85000000000001,0)" xlink:href="#at"/><use transform="matrix(0.05,0,0,0.05,88.85000000000001,0)" xlink:href="#ay"/><use transform="matrix(0.05,0,0,0.05,100.85000000000001,0)" xlink:href="#az"/></g><g id="q"><use transform="matrix(0.05,0,0,0.05,0,0)" xlink:href="#U"/><use transform="matrix(0.05,0,0,0.05,12,0)" xlink:href="#V"/><use transform="matrix(0.05,0,0,0.05,17.95,0)" xlink:href="#W"/><use transform="matrix(0.05,0,0,0.05,27.950000000000003,0)" xlink:href="#X"/><use transform="matrix(0.05,0,0,0.05,31.899999999999995,0)" xlink:href="#Y"/><use transform="matrix(0.05,0,0,0.05,41.9,0)" xlink:href="#Z"/><use transform="matrix(0.05,0,0,0.05,50.9,0)" xlink:href="#aa"/><use transform="matrix(0.05,0,0,0.05,55.900000000000006,0)" xlink:href="#as"/><use transform="matrix(0.05,0,0,0.05,65.9,0)" xlink:href="#ab"/><use transform="matrix(0.05,0,0,0.05,70.9,0)" xlink:href="#ac"/></g><g id="r"><use transform="matrix(0.05,0,0,0.05,0,0)" xlink:href="#at"/><use transform="matrix(0.05,0,0,0.05,12,0)" xlink:href="#au"/><use transform="matrix(0.05,0,0,0.05,26.950000000000003,0)" xlink:href="#al"/><use transform="matrix(0.05,0,0,0.05,36.95,0)" xlink:href="#aq"/><use transform="matrix(0.05,0,0,0.05,40.900000000000006,0)" xlink:href="#W"/><use transform="matrix(0.05,0,0,0.05,50.900000000000006,0)" xlink:href="#av"/><use transform="matrix(0.05,0,0,0.05,59.900000000000006,0)" xlink:href="#Y"/><use transform="matrix(0.05,0,0,0.05,69.9,0)" xlink:href="#Y"/><use transform="matrix(0.05,0,0,0.05,79.9,0)" xlink:href="#as"/><use transform="matrix(0.05,0,0,0.05,89.9,0)" xlink:href="#ab"/><use transform="matrix(0.05,0,0,0.05,94.9,0)" xlink:href="#ac"/></g><g id="s"><use transform="matrix(0.05,0,0,0.05,0,0)" xlink:href="#U"/><use transform="matrix(0.05,0,0,0.05,12,0)" xlink:href="#af"/><use transform="matrix(0.05,0,0,0.05,22,0)" xlink:href="#V"/><use transform="matrix(0.05,0,0,0.05,27.950000000000003,0)" xlink:href="#aa"/><use transform="matrix(0.05,0,0,0.05,32.95,0)" xlink:href="#ae"/><use transform="matrix(0.05,0,0,0.05,42.95,0)" xlink:href="#Y"/><use transform="matrix(0.05,0,0,0.05,52.95,0)" xlink:href="#V"/></g><g id="t"><use transform="matrix(0.05,0,0,0.05,0,0)" xlink:href="#ad"/><use transform="matrix(0.05,0,0,0.05,12.950000000000001,0)" xlink:href="#W"/><use transform="matrix(0.05,0,0,0.05,22.950000000000003,0)" xlink:href="#ae"/><use transform="matrix(0.05,0,0,0.05,32.95,0)" xlink:href="#aa"/><use transform="matrix(0.05,0,0,0.05,37.95,0)" xlink:href="#af"/><use transform="matrix(0.05,0,0,0.05,47.95,0)" xlink:href="#Z"/><use transform="matrix(0.05,0,0,0.05,56.95,0)" xlink:href="#aa"/><use transform="matrix(0.05,0,0,0.05,61.95,0)" xlink:href="#U"/><use transform="matrix(0.05,0,0,0.05,73.95,0)" xlink:href="#Y"/><use transform="matrix(0.05,0,0,0.05,83.95,0)" xlink:href="#V"/><use transform="matrix(0.05,0,0,0.05,89.9,0)" xlink:href="#ak"/><use transform="matrix(0.05,0,0,0.05,98.9,0)" xlink:href="#W"/><use transform="matrix(0.05,0,0,0.05,108.9,0)" xlink:href="#ae"/></g><g id="u"><use transform="matrix(0.05,0,0,0.05,0,0)" xlink:href="#at"/><use transform="matrix(0.05,0,0,0.05,12,0)" xlink:href="#au"/><use transform="matrix(0.05,0,0,0.05,26.950000000000003,0)" xlink:href="#af"/><use transform="matrix(0.05,0,0,0.05,36.95,0)" xlink:href="#ai"/><use transform="matrix(0.05,0,0,0.05,40.900000000000006,0)" xlink:href="#aq"/></g><g id="v"><use transform="matrix(0.05,0,0,0.05,0,0)" xlink:href="#ay"/><use transform="matrix(0.05,0,0,0.05,12,0)" xlink:href="#ao"/><use transform="matrix(0.05,0,0,0.05,22,0)" xlink:href="#au"/><use transform="matrix(0.05,0,0,0.05,36.95,0)" xlink:href="#ai"/><use transform="matrix(0.05,0,0,0.05,40.900000000000006,0)" xlink:href="#ae"/><use transform="matrix(0.05,0,0,0.05,50.900000000000006,0)" xlink:href="#ai"/><use transform="matrix(0.05,0,0,0.05,54.85,0)" xlink:href="#ak"/><use transform="matrix(0.05,0,0,0.05,63.85,0)" xlink:href="#aa"/><use transform="matrix(0.05,0,0,0.05,68.85000000000001,0)" xlink:href="#V"/><use transform="matrix(0.05,0,0,0.05,74.80000000000001,0)" xlink:href="#af"/><use transform="matrix(0.05,0,0,0.05,84.80000000000001,0)" xlink:href="#aa"/><use transform="matrix(0.05,0,0,0.05,89.80000000000001,0)" xlink:href="#W"/><use transform="matrix(0.05,0,0,0.05,99.80000000000001,0)" xlink:href="#V"/></g><path d="M177-190C167-65 218 103 67 71c-23-6-38-20-44-43l32-5c15 47 100 32 89-28v-30C133-14 115 1 83 1 29 1 15-40 15-95c0-56 16-97 71-98 29-1 48 16 59 35 1-10 0-23 2-32h30zM94-22c36 0 50-32 50-73 0-42-14-75-50-75-39 0-46 34-46 75s6 73 46 73" id="aA"/><g id="w"><use transform="matrix(0.05,0,0,0.05,0,0)" xlink:href="#ap"/><use transform="matrix(0.05,0,0,0.05,14,0)" xlink:href="#W"/><use transform="matrix(0.05,0,0,0.05,24,0)" xlink:href="#W"/><use transform="matrix(0.05,0,0,0.05,34,0)" xlink:href="#aA"/><use transform="matrix(0.05,0,0,0.05,44,0)" xlink:href="#aq"/><use transform="matrix(0.05,0,0,0.05,47.95,0)" xlink:href="#Y"/><use transform="matrix(0.05,0,0,0.05,57.95,0)" xlink:href="#ab"/><use transform="matrix(0.05,0,0,0.05,62.95,0)" xlink:href="#ac"/></g></defs></g></svg>